<svg width="504" height="233" viewBox="0 0 504 233" fill="none" xmlns="http://www.w3.org/2000/svg">
<g clip-path="url(#clip0_32_566)">
<path d="M74.7636 24.9577V102H53.6041V71.8341H27.7786V102H6.61913V24.9577H27.7786V53.3874H53.6041V24.9577H74.7636ZM105.798 24.9577H129.453L153.976 102H132.491L127.825 86.9171H107.317L102.759 102H81.1657L105.798 24.9577ZM124.461 72.8107L117.625 45.6831L110.464 72.8107H124.461ZM181.537 64.1299V102H160.377V24.9577H176.871L207.796 64.1299V24.9577H228.956V102H212.137L181.537 64.1299ZM263.344 64.1299V102H242.184V24.9577H258.678L289.603 64.1299V24.9577H310.763V102H293.943L263.344 64.1299ZM341.786 24.9577H365.442L389.965 102H368.48L363.814 86.9171H343.305L338.748 102H317.154L341.786 24.9577ZM360.45 72.8107L353.614 45.6831L346.452 72.8107H360.45ZM464.511 24.9577V102H443.351V71.8341H417.526V102H396.366V24.9577H417.526V53.3874H443.351V24.9577H464.511Z" fill="white"/>
<path d="M80.6216 201.248V103.785H107.39V140.849L137.04 103.785H167.24L131.824 147.438L169.711 201.248H138.962L114.802 165.42L107.39 173.107V201.248H80.6216ZM210.066 103.785H234.638L243.56 133.848L252.62 103.785H277.192L260.719 150.32L267.72 170.225L288.723 103.785H317.824L281.035 201.248H257.837L243.56 166.381L229.421 201.248H206.223L169.434 103.785H198.398L219.538 170.225L226.264 150.32L210.066 103.785ZM338.97 103.785H368.896L399.919 201.248H372.739L366.836 182.167H340.892L335.127 201.248H307.81L338.97 103.785ZM362.581 164.322L353.933 130.004L344.873 164.322H362.581ZM416.942 201.248V103.785H443.71V140.849L473.36 103.785H503.56L468.144 147.438L506.031 201.248H475.282L451.123 165.42L443.71 173.107V201.248H416.942Z" fill="white"/>
<path d="M50.8981 116.55V156.953H39.8012V141.133H26.2574V156.953H15.1606V116.55H26.2574V131.459H39.8012V116.55H50.8981Z" fill="white"/>
<path d="M27.086 198.788V156.489H38.7034V172.575L51.5719 156.489H64.6788L49.308 175.434L65.7511 198.788H52.406L41.9205 183.239L38.7034 186.575V198.788H27.086Z" fill="white"/>
<path d="M65.7735 114.756H10.0845V198H65.7735V114.756Z" stroke="white" stroke-width="2.27627" stroke-miterlimit="10"/>
</g>
<defs>
<clipPath id="clip0_32_566">
<rect width="503.93" height="233" fill="white"/>
</clipPath>
</defs>
</svg>
