<svg width="440" height="203" viewBox="0 0 440 203" fill="none" xmlns="http://www.w3.org/2000/svg">
<g clip-path="url(#clip0_32_554)">
<path d="M65.1374 21.8773V89H46.7023V62.7181H24.202V89H5.76688V21.8773H24.202V46.6465H46.7023V21.8773H65.1374ZM92.1756 21.8773H112.785L134.151 89H115.432L111.367 75.8591H93.4991L89.5285 89H70.7152L92.1756 21.8773ZM108.436 63.569L102.48 39.9342L96.2407 63.569H108.436ZM158.163 56.0059V89H139.728V21.8773H154.098L181.042 56.0059V21.8773H199.477V89H184.823L158.163 56.0059ZM229.437 56.0059V89H211.002V21.8773H225.371L252.315 56.0059V21.8773H270.75V89H256.097L229.437 56.0059ZM297.78 21.8773H318.389L339.755 89H321.036L316.971 75.8591H299.103L295.132 89H276.319L297.78 21.8773ZM314.04 63.569L308.084 39.9342L301.845 63.569H314.04ZM404.702 21.8773V89H386.267V62.7181H363.767V89H345.332V21.8773H363.767V46.6465H386.267V21.8773H404.702Z" fill="white"/>
<path d="M70.2412 174.946V90.0319H93.5626V122.323L119.395 90.0319H145.707L114.851 128.064L147.86 174.946H121.07L100.021 143.731L93.5626 150.428V174.946H70.2412ZM183.019 90.0319H204.427L212.201 116.224L220.094 90.0319H241.502L227.15 130.575L233.25 147.917L251.548 90.0319H276.903L244.851 174.946H224.639L212.201 144.568L199.882 174.946H179.67L147.618 90.0319H172.853L191.271 147.917L197.132 130.575L183.019 90.0319ZM295.326 90.0319H321.398L348.427 174.946H324.747L319.604 158.322H297.001L291.977 174.946H268.178L295.326 90.0319ZM315.897 142.774L308.362 112.875L300.469 142.774H315.897ZM363.259 174.946V90.0319H386.58V122.323L412.413 90.0319H438.724L407.868 128.064L440.877 174.946H414.087L393.038 143.731L386.58 150.428V174.946H363.259Z" fill="white"/>
</g>
<defs>
<clipPath id="clip0_32_554">
<rect width="439.047" height="203" fill="white"/>
</clipPath>
</defs>
</svg>
